<svg width="369" height="125" viewBox="0 0 369 125" fill="none" xmlns="http://www.w3.org/2000/svg">
<path d="M26.976 95.48C23.2 95.48 19.456 94.84 15.744 93.56C12.032 92.28 9.024 90.36 6.72 87.8C6.016 87.032 5.728 86.168 5.856 85.208C5.984 84.248 6.464 83.416 7.296 82.712C8.192 82.072 9.12 81.816 10.08 81.944C11.04 82.072 11.84 82.488 12.48 83.192C14.016 84.984 16.032 86.36 18.528 87.32C21.088 88.28 23.904 88.76 26.976 88.76C31.712 88.76 35.136 87.96 37.248 86.36C39.36 84.696 40.448 82.712 40.512 80.408C40.512 78.104 39.424 76.216 37.248 74.744C35.072 73.208 31.488 72.024 26.496 71.192C20.032 70.168 15.296 68.376 12.288 65.816C9.28 63.256 7.776 60.216 7.776 56.696C7.776 53.432 8.64 50.712 10.368 48.536C12.096 46.36 14.4 44.728 17.28 43.64C20.16 42.552 23.328 42.008 26.784 42.008C31.072 42.008 34.752 42.744 37.824 44.216C40.96 45.688 43.488 47.672 45.408 50.168C46.048 51 46.304 51.864 46.176 52.76C46.048 53.656 45.536 54.392 44.64 54.968C43.872 55.416 42.976 55.576 41.952 55.448C40.992 55.256 40.16 54.776 39.456 54.008C37.856 52.152 36 50.808 33.888 49.976C31.776 49.08 29.344 48.632 26.592 48.632C23.072 48.632 20.256 49.368 18.144 50.84C16.032 52.248 14.976 54.04 14.976 56.216C14.976 57.688 15.36 58.968 16.128 60.056C16.96 61.144 18.336 62.104 20.256 62.936C22.24 63.768 24.992 64.472 28.512 65.048C33.312 65.816 37.088 66.968 39.84 68.504C42.656 69.976 44.64 71.736 45.792 73.784C47.008 75.768 47.616 77.944 47.616 80.312C47.616 83.32 46.72 85.976 44.928 88.28C43.2 90.52 40.768 92.28 37.632 93.56C34.56 94.84 31.008 95.48 26.976 95.48ZM84.198 95.48C79.014 95.48 74.406 94.36 70.374 92.12C66.406 89.816 63.27 86.648 60.966 82.616C58.726 78.584 57.606 73.976 57.606 68.792C57.606 63.544 58.662 58.936 60.774 54.968C62.95 50.936 65.926 47.768 69.702 45.464C73.478 43.16 77.83 42.008 82.758 42.008C87.622 42.008 91.846 43.128 95.43 45.368C99.078 47.544 101.894 50.584 103.878 54.488C105.862 58.392 106.854 62.84 106.854 67.832C106.854 68.856 106.534 69.688 105.894 70.328C105.254 70.904 104.422 71.192 103.398 71.192H62.598V65.048H104.166L100.038 68.024C100.102 64.312 99.43 60.984 98.022 58.04C96.614 55.096 94.598 52.792 91.974 51.128C89.414 49.464 86.342 48.632 82.758 48.632C79.11 48.632 75.91 49.496 73.158 51.224C70.406 52.952 68.262 55.352 66.726 58.424C65.254 61.432 64.518 64.888 64.518 68.792C64.518 72.696 65.35 76.152 67.014 79.16C68.742 82.168 71.078 84.536 74.022 86.264C76.966 87.992 80.358 88.856 84.198 88.856C86.502 88.856 88.806 88.472 91.11 87.704C93.478 86.872 95.366 85.848 96.774 84.632C97.478 84.056 98.278 83.768 99.174 83.768C100.07 83.704 100.838 83.928 101.478 84.44C102.31 85.208 102.726 86.04 102.726 86.936C102.79 87.832 102.438 88.6 101.67 89.24C99.558 91.032 96.87 92.536 93.606 93.752C90.342 94.904 87.206 95.48 84.198 95.48ZM140.62 95.48C135.692 95.48 131.276 94.328 127.372 92.024C123.468 89.656 120.364 86.456 118.06 82.424C115.82 78.392 114.7 73.848 114.7 68.792C114.7 63.672 115.852 59.096 118.156 55.064C120.524 51.032 123.724 47.864 127.756 45.56C131.788 43.192 136.332 42.008 141.388 42.008C146.444 42.008 150.956 43.192 154.924 45.56C158.956 47.864 162.124 51.032 164.428 55.064C166.796 59.096 168.012 63.672 168.076 68.792L165.1 71.096C165.1 75.704 164.012 79.864 161.836 83.576C159.724 87.224 156.812 90.136 153.1 92.312C149.452 94.424 145.292 95.48 140.62 95.48ZM141.388 88.76C145.1 88.76 148.396 87.896 151.276 86.168C154.22 84.44 156.524 82.072 158.188 79.064C159.916 75.992 160.78 72.568 160.78 68.792C160.78 64.952 159.916 61.528 158.188 58.52C156.524 55.512 154.22 53.144 151.276 51.416C148.396 49.624 145.1 48.728 141.388 48.728C137.74 48.728 134.444 49.624 131.5 51.416C128.556 53.144 126.22 55.512 124.492 58.52C122.764 61.528 121.9 64.952 121.9 68.792C121.9 72.568 122.764 75.992 124.492 79.064C126.22 82.072 128.556 84.44 131.5 86.168C134.444 87.896 137.74 88.76 141.388 88.76ZM164.332 95C163.244 95 162.348 94.68 161.644 94.04C160.94 93.336 160.588 92.44 160.588 91.352V74.936L162.412 67.352L168.076 68.792V91.352C168.076 92.44 167.724 93.336 167.02 94.04C166.316 94.68 165.42 95 164.332 95Z" fill="#3183D5"/>
<path d="M180.341 95V27.8H205.205C210.581 27.8 215.029 28.696 218.549 30.488C222.069 32.28 224.693 34.744 226.421 37.88C228.149 41.016 229.013 44.536 229.013 48.44C229.013 52.152 228.181 55.576 226.517 58.712C224.853 61.784 222.261 64.28 218.741 66.2C215.221 68.056 210.709 68.984 205.205 68.984H192.629V95H180.341ZM192.629 59H204.437C208.725 59 211.797 58.072 213.653 56.216C215.573 54.296 216.533 51.704 216.533 48.44C216.533 45.112 215.573 42.52 213.653 40.664C211.797 38.744 208.725 37.784 204.437 37.784H192.629V59ZM251.781 96.152C247.685 96.152 244.325 95.512 241.701 94.232C239.077 92.888 237.125 91.128 235.845 88.952C234.565 86.776 233.925 84.376 233.925 81.752C233.925 77.336 235.653 73.752 239.109 71C242.565 68.248 247.749 66.872 254.661 66.872H266.757V65.72C266.757 62.456 265.829 60.056 263.973 58.52C262.117 56.984 259.813 56.216 257.061 56.216C254.565 56.216 252.389 56.824 250.533 58.04C248.677 59.192 247.525 60.92 247.077 63.224H235.077C235.397 59.768 236.549 56.76 238.533 54.2C240.581 51.64 243.205 49.688 246.405 48.344C249.605 46.936 253.189 46.232 257.157 46.232C263.941 46.232 269.285 47.928 273.189 51.32C277.093 54.712 279.045 59.512 279.045 65.72V95H268.581L267.429 87.32C266.021 89.88 264.037 91.992 261.477 93.656C258.981 95.32 255.749 96.152 251.781 96.152ZM254.565 86.552C258.085 86.552 260.805 85.4 262.725 83.096C264.709 80.792 265.957 77.944 266.469 74.552H256.005C252.741 74.552 250.405 75.16 248.997 76.376C247.589 77.528 246.885 78.968 246.885 80.696C246.885 82.552 247.589 83.992 248.997 85.016C250.405 86.04 252.261 86.552 254.565 86.552ZM295.13 116.12L306.17 91.832H303.29L284.762 47.384H298.106L311.45 80.888L325.37 47.384H338.426L308.186 116.12H295.13Z" fill="#3E3D3D"/>
</svg>
